<?xml version="1.0" encoding="UTF-8" standalone="no"?>
<!-- Created with Inkscape (http://www.inkscape.org/) -->

<svg
   xmlns:dc="http://purl.org/dc/elements/1.1/"
   xmlns:cc="http://creativecommons.org/ns#"
   xmlns:rdf="http://www.w3.org/1999/02/22-rdf-syntax-ns#"
   xmlns:svg="http://www.w3.org/2000/svg"
   xmlns="http://www.w3.org/2000/svg"
   xmlns:sodipodi="http://sodipodi.sourceforge.net/DTD/sodipodi-0.dtd"
   xmlns:inkscape="http://www.inkscape.org/namespaces/inkscape"
   version="1.1"
   id="svg10"
   width="857.78375"
   height="858.31146"
   viewBox="0 0 857.78375 858.31146"
   sodipodi:docname="logo.svg"
   inkscape:version="0.92.4 (5da689c313, 2019-01-14)">
  <metadata
     id="metadata16">
    <rdf:RDF>
      <cc:Work
         rdf:about="">
        <dc:format>image/svg+xml</dc:format>
        <dc:type
           rdf:resource="http://purl.org/dc/dcmitype/StillImage" />
        <dc:title></dc:title>
      </cc:Work>
    </rdf:RDF>
  </metadata>
  <defs
     id="defs14" />
  <sodipodi:namedview
     pagecolor="#ffffff"
     bordercolor="#666666"
     borderopacity="1"
     objecttolerance="10"
     gridtolerance="10"
     guidetolerance="10"
     inkscape:pageopacity="0"
     inkscape:pageshadow="2"
     inkscape:window-width="1366"
     inkscape:window-height="705"
     id="namedview12"
     showgrid="false"
     fit-margin-top="0"
     fit-margin-left="0"
     fit-margin-right="0"
     fit-margin-bottom="0"
     inkscape:zoom="0.59555556"
     inkscape:cx="472.46785"
     inkscape:cy="436.2926"
     inkscape:window-x="-8"
     inkscape:window-y="-8"
     inkscape:window-maximized="1"
     inkscape:current-layer="svg10" />
  <path
     style="fill:#000000"
     d="m 378.97158,857.22562 c -59.59695,-6.94731 -120.86983,-27.92686 -172.5,-59.06319 C 177.69801,780.81011 151.68716,760.59132 129.40993,738.26075 69.342687,678.04971 29.493107,608.72985 10.899457,532.10731 2.2335367,496.39592 -0.04755333,474.22496 7.4666779e-4,426.17772 0.03524667,391.84979 0.96405667,377.40113 4.5107668,356.01894 24.702397,234.28873 98.56528,125.73966 205.69249,60.361783 c 24.89392,-15.192322 62.67839,-32.665631 88.77909,-41.055604 23.92086,-7.689272 51.90964,-14.0465444 75.5,-17.1487994 14.55128,-1.91356999 79.37967,-2.89111899 99.99997,-1.50790099 66.7386,4.47684999 141.0248,31.11890239 200.9802,72.07970739 21.4781,14.6736 37.6575,28.400034 60.5245,51.348464 36.7139,36.84472 60.8774,70.02136 82.3616,113.083 37.9819,76.1287 51.3793,160.39981 40.0523,251.93365 -8.5476,69.07359 -36.3261,136.70861 -80.9377,197.06635 -26.8144,36.27894 -62.7141,71.65314 -97.943,96.50927 -53.8491,37.99389 -121.5568,64.28579 -189.5379,73.60042 -15.6572,2.14532 -90.53009,2.81692 -106.49997,0.95528 z m 74.81257,-30.6243 c 48.25,-3.48005 90.2507,-13.7784 131.914,-32.34457 46.6086,-20.7699 79.8157,-42.99361 115.1676,-77.07541 70.3131,-67.78698 110.0863,-147.16246 122.7742,-245.02069 2.5567,-19.71869 2.5551,-71.67787 0,-92.5 -7.0652,-57.51732 -25.6246,-111.65306 -55.0367,-160.53683 -55.3109,-91.92843 -144.1443,-156.740381 -250.1752,-182.525344 -33.3504,-8.110249 -50.6183,-9.945655 -93.34869,-9.922011 -40.22312,0.02226 -55.02604,1.43807 -84.43286,8.075509 -33.05776,7.461499 -61.78001,17.660942 -91.67192,32.553242 -27.54029,13.72071 -50.38163,28.30261 -75.5,48.199134 -14.84952,11.76245 -47.09435,43.91495 -58.82474,58.6563 -48.183993,60.55187 -76.731533,129.16957 -86.327803,207.5 -2.21773,18.10244 -2.54855,68.80606 -0.55459,85 6.53615,53.08332 18.34849,93.26987 40.4992,137.78153 25.422993,51.08728 52.965093,86.14088 101.928463,129.72718 56.14969,49.98343 139.59273,84.5053 223.27947,92.37469 13.21345,1.24251 43.48102,1.27125 60.31257,0.0573 z M 224.36685,729.70558 C 161.74391,708.26207 119.37928,670.29719 87.021057,606.62373 65.269567,563.82185 54.078527,522.83489 50.921727,474.41065 c -3.84714,-59.01379 13.12309,-129.51269 41.34301,-171.75 10.053193,-15.04681 26.247103,-32.66807 37.206843,-40.48632 20.40594,-14.55679 48.93719,-21.44937 77.04755,-18.61313 28.44838,2.87035 45.36485,12.19356 81.95674,45.16901 24.59562,22.1648 33.42128,29.25922 41.99571,33.75785 6.93884,3.6405 7.10485,3.67248 19,3.65965 7.35084,-0.008 13.4627,-0.52551 15.7754,-1.33594 9.37875,-3.28654 14.80842,-11.97896 15.51762,-24.84235 0.81735,-14.82495 1.96033,-12.99374 -24.22303,-38.80877 -12.83049,-12.65 -26.15377,-26.15 -29.60727,-30 -14.24361,-15.87891 -23.4332,-30.83479 -28.57177,-46.5 -2.64468,-8.06247 -2.79073,-9.47802 -2.83732,-27.5 -0.0457,-17.67739 0.14114,-19.69611 2.68402,-29 15.10868,-55.279564 70.59552,-92.003567 134.74965,-89.184168 37.22747,1.636045 69.16257,14.798802 92.65907,38.191494 14.34,14.27662 25.4785,33.118804 30.5506,51.680204 1.9989,7.31503 2.2623,10.53235 2.195,26.81247 -0.087,21.13476 -1.3796,27.77698 -8.2589,42.45709 -8.3772,17.87641 -21.0918,32.77574 -56.3633,66.04794 -19.9563,18.8251 -21.2641,20.89016 -21.2125,33.49497 0.043,10.41282 2.6347,17.07865 8.8795,22.83497 5.6253,5.18517 11.669,6.59997 25.236,5.90755 16.0456,-0.81893 20.3219,-3.53859 57.7749,-36.74366 32.3427,-28.67448 46.6766,-38.19859 65.0523,-43.22382 7.1692,-1.96055 10.3887,-2.18461 31,-2.15739 22.1637,0.0293 23.3273,0.12992 32,2.7682 11.9474,3.63443 26.1225,10.4312 33.2332,15.93485 26.2078,20.28473 50.3792,58.56622 63.3262,100.29319 14.1029,45.45213 17.6649,102.67959 9.2983,149.38611 -8.7137,48.64366 -29.3028,97.25165 -58.1877,137.37247 -26.1904,36.37815 -65.5352,64.8697 -108.4319,78.52093 -12.3676,3.93581 -16.856,4.04348 -19.6655,0.47174 -1.1399,-1.44917 -2.0726,-3.45213 -2.0726,-4.45102 0,-1.12123 4.2734,-5.18296 11.1683,-10.61514 22.4799,-17.71092 26.3004,-20.85732 36.221,-29.83056 28.9985,-26.22917 52.2693,-60.00847 66.1135,-95.96842 13.8996,-36.10382 19.7111,-75.14063 17.4925,-117.5 -1.5217,-29.05354 -3.6811,-43.2073 -9.1543,-60 -4.2142,-12.92987 -9.0625,-22.40505 -14.9262,-29.17104 -2.7031,-3.11908 -4.9148,-6.2929 -4.9148,-7.05295 0,-0.76004 2.1148,-2.52481 4.6996,-3.92171 6.4134,-3.46607 7.136,-4.87216 4.4454,-8.65065 -2.8895,-4.05793 -7.5256,-5.48617 -15.0464,-4.63529 -5.7743,0.65329 -6.0758,0.57568 -7.1803,-1.84836 -0.9668,-2.12188 -0.7947,-3.16753 1.066,-6.47829 2.9688,-5.28217 2.3673,-7.28726 -3.0444,-10.14876 -4.8768,-2.57868 -8.4619,-2.42802 -11.3677,0.4777 -2.0257,2.02576 -6.9921,3.42935 -12.1341,3.42935 -6.1236,0 -14.0378,2.70968 -17.9522,6.14652 -5.9936,5.26249 -5.2956,7.4078 11.0143,33.85348 11.2042,18.16714 20.8084,41.73238 25.5637,62.72454 3.1759,14.01942 4.583,43.58885 3.1192,65.54486 -1.3868,20.80139 -2.5902,27.38415 -7.7643,42.47289 -20.0057,58.34051 -55.2148,111.26031 -95.4188,143.41577 -17.4906,13.98914 -40.1724,27.83911 -45.595,27.84115 -2.5453,9.6e-4 -5.4063,-2.95364 -5.4012,-5.57795 0.01,-2.87807 2.7091,-6.67838 14.4502,-20.31218 49.5428,-57.52951 73.3928,-113.38239 82.0335,-192.10908 0.8753,-7.975 2.4737,-18.07318 3.552,-22.44039 2.5956,-10.51258 2.5004,-11.87517 -1.1182,-15.99654 -3.852,-4.38714 -3.4738,-6.55173 1.5587,-8.92137 l 3.9532,-1.86142 -4.232,-3.64014 c -3.3902,-2.91598 -4.2291,-4.2934 -4.2166,-6.92387 0.013,-2.68516 0.6534,-3.66014 3.5154,-5.34877 1.925,-1.13578 3.5,-2.4443 3.5,-2.90783 0,-0.46353 -2.7,-2.92038 -6,-5.45967 -3.3,-2.53929 -6,-4.78569 -6,-4.992 0,-0.20631 1.4203,-2.65978 3.1561,-5.45216 1.7358,-2.79237 2.8522,-5.38091 2.4808,-5.75231 -0.3714,-0.3714 -2.5791,-0.5794 -4.9061,-0.46223 -2.6451,0.13318 -5.7155,-0.54675 -8.1922,-1.81414 -4.9784,-2.54758 -12.6539,-2.61496 -18.0386,-0.15834 -8.0615,3.67788 -15.6387,14.17778 -17.0482,23.62432 -0.3532,2.36724 0.3182,9.3265 1.6408,17.00686 1.9984,11.60465 2.2427,16.48838 2.2756,45.5 0.042,36.78033 -0.7201,43.153 -8.4873,70.98935 -7.152,25.63159 -15.1828,43.9231 -28.1957,64.22032 -15.6788,24.45559 -32.4527,43.2245 -49.092,54.93105 -7.3034,5.13828 -9.5717,5.79496 -11.5952,3.3568 -1.937,-2.3339 -0.6186,-6.5026 7.0622,-22.33019 13.0185,-26.8269 20.1832,-45.69281 26.4574,-69.66733 4.5819,-17.50803 7.1453,-33.39622 8.9098,-55.22273 1.5114,-18.69723 2.175,-21.45889 5.5956,-23.28954 2.7541,-1.47395 2.5343,-2.3416 -2.068,-8.16394 -2.2248,-2.81456 -3.9123,-5.83882 -3.75,-6.72059 0.1698,-0.92278 2.3088,-2.23982 5.0398,-3.1032 2.6096,-0.825 4.7383,-1.725 4.7305,-2 -0.01,-0.275 -3.1992,-3.19844 -7.0921,-6.49652 l -7.0778,-5.99653 4.9999,-2.19126 c 2.7499,-1.2052 5.2485,-2.59359 5.5524,-3.08531 0.3039,-0.49173 -1.6798,-3.09276 -4.4081,-5.78007 l -4.9606,-4.88602 0.6278,-6.12822 c 0.7539,-7.35821 1.1797,-7.08303 -12.4071,-8.0188 -11.685,-0.80479 -15.6693,0.1963 -21.4051,5.37827 -8.6031,7.77239 -10.0021,14.89834 -10.3469,52.70446 -0.3017,33.07403 -1.8022,49.62432 -7.0198,77.42693 -5.9492,31.70079 -16.3541,64.73631 -27.8971,88.57307 -11.2275,23.18528 -13.189,19.86964 -14.1981,-24 -0.6661,-28.95541 0.5675,-50.73579 3.2538,-57.44945 1.4268,-3.56597 1.3721,-4.06457 -1.0454,-9.53111 -3.4822,-7.87381 -3.3328,-9.77625 0.9277,-11.8079 4.2977,-2.04943 3.8309,-4.00276 -1.6212,-6.7842 -4.54253,-2.31743 -4.35762,-3.15807 2.0633,-9.38029 2.2435,-2.17412 4.0791,-4.26284 4.0791,-4.64159 0,-0.37875 -1.2349,-0.9986 -2.7444,-1.37745 -4.2409,-1.0644 -5.2556,-2.42127 -5.2556,-7.02801 0,-4.68568 1.8182,-7.00989 4.7545,-6.07793 1.0177,0.32302 2.7099,-0.0411 3.7602,-0.80917 1.6087,-1.17624 1.7028,-1.64593 0.5971,-2.97823 -0.722,-0.86996 -2.8467,-1.86952 -4.7216,-2.22125 -2.4833,-0.46588 -3.5715,-1.28754 -4.0079,-3.02646 -1.0466,-4.1699 0.3297,-7.16479 3.6251,-7.88858 6.1181,-1.34376 6.2372,-7.1866 0.1568,-7.69313 -3.6269,-0.30215 -3.6673,-0.35478 -3.974,-5.17941 -0.2884,-4.53613 -0.046,-5.11671 3.5,-8.37131 l 3.8098,-3.49715 -5.8102,-5.2039 c -3.19562,-2.86215 -8.23148,-6.67134 -11.19079,-8.46487 -6.17459,-3.74219 -7.80938,-3.57781 -13.35952,1.34333 -2.00171,1.77485 -5.77696,4.67535 -8.38946,6.44557 -5.67484,3.84524 -6.01236,6.01195 -1.82374,11.70757 5.51101,7.49382 4.96252,10.92196 -1.85326,11.58322 -1.88044,0.18243 -3.58056,0.82498 -3.77805,1.42788 -0.19749,0.60289 1.76666,3.67828 4.36477,6.83418 5.41793,6.58111 5.21783,8.22207 -1.22298,10.02918 -2.1652,0.6075 -3.93674,1.68942 -3.93674,2.40426 0,0.71485 1.79773,2.52062 3.99494,4.01283 4.91287,3.33649 5.26367,4.88535 2.40351,10.61226 l -2.24644,4.49805 2.32162,4.95676 c 2.19991,4.6969 2.23475,5.08933 0.66451,7.48582 -2.14104,3.26763 -2.18087,4.63409 -0.57049,19.57048 0.90414,8.38595 1.36164,26.48778 1.39003,55 0.0381,38.25951 -0.13087,42.88295 -1.69345,46.33808 -0.9592,2.12093 -2.30139,3.66758 -3,3.457 -1.95457,-0.58917 -14.79268,-26.83908 -19.99083,-40.87496 -16.18886,-43.7127 -22.07648,-79.26162 -23.75327,-143.42012 -0.89962,-34.42189 -1.43929,-38.16834 -6.56317,-45.5621 -1.51559,-2.187 -4.60771,-4.80065 -7.11604,-6.01491 -4.02928,-1.95054 -5.70872,-2.11239 -18.32428,-1.76593 -7.63864,0.20977 -14.15021,0.64317 -14.47014,0.96311 -0.31994,0.31994 0.10121,3.8282 0.9359,7.79614 2.213,10.52025 2.16823,10.72403 -2.52067,11.47382 -6.21836,0.99436 -6.47793,5.55055 -0.31872,5.59456 2.76348,0.0197 3.58702,2.29858 2.77868,7.68893 -0.61559,4.10505 -0.81901,4.32638 -3.97622,4.32638 -5.50625,0 -5.74582,4.00244 -0.35211,5.8827 4.27792,1.49129 4.48245,3.4353 1.00896,9.58999 -1.70628,3.02336 -3.10232,5.96348 -3.10232,6.5336 0,0.57013 1.18387,2.82554 2.63083,5.01204 2.48351,3.75284 2.5602,4.22773 1.36948,8.48056 -0.69374,2.4778 -1.00237,5.9667 -0.68583,7.7531 6.56972,37.07728 11.37939,61.40204 13.88996,70.24801 4.13591,14.57289 11.57443,33.02098 22.70595,56.3125 5.01471,10.49275 9.38827,20.43082 9.71903,22.0846 0.53149,2.65747 0.28313,3.08674 -2.13733,3.69424 -3.91377,0.98229 -9.48855,-2.05042 -18.99209,-10.3318 -13.28551,-11.577 -28.69072,-29.65384 -39.4227,-46.25954 -17.45868,-27.01399 -29.56956,-58.74319 -35.78064,-93.74136 -2.65412,-14.95546 -2.79415,-17.26218 -2.74735,-45.25864 0.0382,-22.82729 0.43399,-31.85833 1.75,-39.92614 3.36708,-20.64198 1.81038,-29.40158 -6.95214,-39.11972 -7.31995,-8.11825 -16.65925,-10.04403 -26.49787,-5.46391 -2.94212,1.36963 -6.86426,2.49463 -8.71588,2.5 -3.1528,0.009 -3.32772,0.18439 -2.75464,2.75977 0.33656,1.5125 0.91063,5.86312 1.2757,9.66805 0.62791,6.54431 0.56063,6.87501 -1.24535,6.12141 -4.26862,-1.78123 -6.37937,-1.7806 -7.06345,0.002 -0.46886,1.22183 0.0692,2.32512 1.73756,3.56264 4.9466,3.66926 5.91676,4.96945 5.91676,7.92953 0,2.4071 -0.72293,3.46026 -3.5,5.09877 -4.20862,2.48315 -4.39244,4.05059 -0.78337,6.67961 l 2.71663,1.97893 -2.28584,6.97247 -2.28585,6.97247 3.11051,22.88201 c 7.93552,58.37651 15.31924,86.84992 31.34711,120.88201 13.64921,28.98147 27.09369,49.40157 51.99427,78.97135 13.27918,15.76921 17.52161,22.09358 15.90497,23.71022 -0.57706,0.57706 -3.33314,1.0492 -6.12463,1.0492 -12.45674,0 -41.10333,-19.10027 -65.5938,-43.73501 -27.49241,-27.65437 -54.42911,-70.10284 -70.80924,-111.58547 -23.92333,-60.58577 -17.98164,-129.91867 15.85337,-184.99111 3.18279,-5.18055 7.54921,-12.28413 9.70316,-15.78573 5.26925,-8.56603 5.72338,-11.82642 2.22617,-15.98262 -5.06359,-6.01774 -9.63831,-7.64989 -21.46492,-7.6582 l -10.49145,-0.007 -0.51625,-2.98042 c -0.68276,-3.94174 -2.74203,-4.17643 -8.96706,-1.02197 -6.34853,3.21704 -7.05755,4.8391 -3.66368,8.38154 3.16057,3.29891 3.21207,4.07412 0.60958,9.17542 -2.44458,4.79175 -4.57741,5.03326 -8.47968,0.96016 -1.5808,-1.65 -3.48427,-3 -4.22993,-3 -1.48358,-2.6e-4 -11.27007,8.76739 -11.27007,10.09651 0,0.4527 2.25,2.9277 5,5.5 2.75,2.5723 5,5.20206 5,5.84391 0,1.42027 -5.64151,6.8784 -8.77067,8.48557 -2.70563,1.38964 -4.02522,0.74079 -5.29717,-2.60467 -0.51945,-1.36628 -1.5042,-2.30038 -2.18831,-2.07577 -1.99682,0.65559 -5.74385,6.8331 -5.74385,9.46955 0,2.22972 0.33352,2.39469 4.25,2.10212 4.00959,-0.29952 4.23482,-0.17606 3.98169,2.18252 -0.14757,1.375 -1.79733,6.325 -3.66614,11 -3.75863,9.4026 -6.54329,21.34999 -9.20653,39.5 -2.47133,16.8422 -2.51265,62.83042 -0.072,80.1699 8.67065,61.60102 32.17903,110.09985 73.12777,150.86589 12.19286,12.13845 22.72146,21.13215 41.41142,35.37429 14.08084,10.72989 15.89934,12.82566 14.11994,16.27286 -1.65845,3.21289 -5.07906,6.83235 -6.37042,6.74078 -0.59163,-0.042 -6.07282,-1.78741 -12.18042,-3.87879 z m 508.6047,-344.1409 c 0,-2.29994 -1.499,-3.1978 -4.0089,-2.40119 -2.2288,0.7074 -2.7002,4.38803 -0.8047,6.28351 1.492,1.49203 4.8136,-1.18693 4.8136,-3.88232 z M 400.97158,179.64078 c 0,-12.69586 -24.36036,-44.38154 -44.453,-57.82032 -8.63549,-5.77577 -12.62324,-7.14631 -20.81605,-7.15423 l -5.76905,-0.006 0.62939,2.75 c 3.59731,15.7176 28.61708,47.71397 44.6744,57.13157 7.54537,4.42535 17.29091,8.00111 21.98431,8.06633 3.51699,0.0489 3.75,-0.13555 3.75,-2.96777 z m 71.49997,-1.8862 c 4.4,-2.17851 11.2228,-6.67923 15.1618,-10.00161 7.5542,-6.37171 20.8233,-21.59747 27.4258,-31.47004 6.7988,-10.16623 8.4239,-20.20779 3.6811,-22.74607 -7.5265,-4.02807 -36.8314,17.14105 -52.0378,37.59087 -9.5078,12.78607 -14.7849,24.6365 -13.1978,29.637 0.6168,1.94344 1.174,2.09171 5.8245,1.54989 2.9602,-0.34488 8.5373,-2.27999 13.1424,-4.56004 z"
     id="path20"
     inkscape:connector-curvature="0" />
</svg>
